<?xml version="1.0" encoding="UTF-8"?><!DOCTYPE svg PUBLIC "-//W3C//DTD SVG 1.1//EN" "http://www.w3.org/Graphics/SVG/1.1/DTD/svg11.dtd"><svg xmlns="http://www.w3.org/2000/svg" viewBox="0 0 800 500" style="stroke:#000;stroke-width:3;stroke-linecap:round"><line x1="178" y1="397" x2="189" y2="397"/><line x1="178" y1="397" x2="178" y2="363"/><line x1="299" y1="397" x2="355" y2="397"/><line x1="355" y1="397" x2="355" y2="389"/><line x1="580" y1="112" x2="626" y2="112"/><line x1="580" y1="112" x2="580" y2="236"/><line x1="730" y1="112" x2="736" y2="112"/><line x1="730" y1="112" x2="730" y2="242"/><line x1="212" y1="227" x2="247" y2="227"/><line x1="212" y1="227" x2="212" y2="128"/><line x1="357" y1="227" x2="388" y2="227"/><line x1="388" y1="227" x2="388" y2="133"/><line x1="58" y1="330" x2="63" y2="330"/><line x1="63" y1="330" x2="63" y2="174"/><line x1="168" y1="330" x2="178" y2="330"/><line x1="178" y1="330" x2="178" y2="363"/><line x1="63" y1="60" x2="65" y2="60"/><line x1="63" y1="60" x2="63" y2="174"/><line x1="175" y1="60" x2="212" y2="60"/><line x1="212" y1="60" x2="212" y2="128"/><line x1="63" y1="132" x2="67" y2="132"/><line x1="63" y1="132" x2="63" y2="174"/><line x1="177" y1="132" x2="212" y2="132"/><line x1="212" y1="132" x2="212" y2="128"/><line x1="212" y1="93" x2="249" y2="93"/><line x1="212" y1="93" x2="212" y2="128"/><line x1="359" y1="93" x2="388" y2="93"/><line x1="388" y1="93" x2="388" y2="133"/><line x1="355" y1="382" x2="412" y2="382"/><line x1="355" y1="382" x2="355" y2="389"/><line x1="522" y1="382" x2="580" y2="382"/><line x1="580" y1="382" x2="580" y2="236"/><line x1="388" y1="79" x2="450" y2="79"/><line x1="388" y1="79" x2="388" y2="133"/><line x1="560" y1="79" x2="580" y2="79"/><line x1="580" y1="79" x2="580" y2="236"/><line x1="580" y1="373" x2="615" y2="373"/><line x1="580" y1="373" x2="580" y2="236"/><line x1="725" y1="373" x2="730" y2="373"/><line x1="730" y1="373" x2="730" y2="242"/><line x1="229" y1="422" x2="229" y2="372"/><line x1="259" y1="412" x2="259" y2="382"/><line x1="214" y1="377" x2="214" y2="387"/><line x1="209" y1="382" x2="219" y2="382"/><line x1="269" y1="382" x2="279" y2="382"/><line x1="259" y1="397" x2="299" y2="397"/><line x1="189" y1="397" x2="229" y2="397"/><line x1="666" y1="137" x2="666" y2="87"/><line x1="696" y1="127" x2="696" y2="97"/><line x1="651" y1="92" x2="651" y2="102"/><line x1="646" y1="97" x2="656" y2="97"/><line x1="706" y1="97" x2="716" y2="97"/><line x1="696" y1="112" x2="736" y2="112"/><line x1="626" y1="112" x2="666" y2="112"/><line x1="287" y1="252" x2="287" y2="202"/><line x1="317" y1="242" x2="317" y2="212"/><line x1="272" y1="207" x2="272" y2="217"/><line x1="267" y1="212" x2="277" y2="212"/><line x1="327" y1="212" x2="337" y2="212"/><line x1="317" y1="227" x2="357" y2="227"/><line x1="247" y1="227" x2="287" y2="227"/><line x1="73" y1="350" x2="153" y2="350"/><line x1="73" y1="310" x2="153" y2="310"/><line x1="73" y1="350" x2="73" y2="310"/><line x1="153" y1="350" x2="153" y2="310"/><line x1="153" y1="330" x2="168" y2="330"/><line x1="58" y1="330" x2="73" y2="330"/><line x1="80" y1="80" x2="160" y2="80"/><line x1="80" y1="40" x2="160" y2="40"/><line x1="80" y1="80" x2="80" y2="40"/><line x1="160" y1="80" x2="160" y2="40"/><line x1="160" y1="60" x2="175" y2="60"/><line x1="65" y1="60" x2="80" y2="60"/><line x1="82" y1="152" x2="162" y2="152"/><line x1="82" y1="112" x2="162" y2="112"/><line x1="82" y1="152" x2="82" y2="112"/><line x1="162" y1="152" x2="162" y2="112"/><line x1="162" y1="132" x2="177" y2="132"/><line x1="67" y1="132" x2="82" y2="132"/><line x1="264" y1="113" x2="344" y2="113"/><line x1="264" y1="73" x2="344" y2="73"/><line x1="264" y1="113" x2="264" y2="73"/><line x1="344" y1="113" x2="344" y2="73"/><line x1="344" y1="93" x2="359" y2="93"/><line x1="249" y1="93" x2="264" y2="93"/><line x1="427" y1="402" x2="507" y2="402"/><line x1="427" y1="362" x2="507" y2="362"/><line x1="427" y1="402" x2="427" y2="362"/><line x1="507" y1="402" x2="507" y2="362"/><line x1="507" y1="382" x2="522" y2="382"/><line x1="412" y1="382" x2="427" y2="382"/><line x1="465" y1="99" x2="545" y2="99"/><line x1="465" y1="59" x2="545" y2="59"/><line x1="465" y1="99" x2="465" y2="59"/><line x1="545" y1="99" x2="545" y2="59"/><line x1="545" y1="79" x2="560" y2="79"/><line x1="450" y1="79" x2="465" y2="79"/><line x1="630" y1="393" x2="710" y2="393"/><line x1="630" y1="353" x2="710" y2="353"/><line x1="630" y1="393" x2="630" y2="353"/><line x1="710" y1="393" x2="710" y2="353"/><line x1="710" y1="373" x2="725" y2="373"/><line x1="615" y1="373" x2="630" y2="373"/></svg>
